<?xml version="1.0" encoding="UTF-8" standalone="no"?>
<svg width="337px" height="71px" viewBox="0 0 337 71" version="1.1" xmlns="http://www.w3.org/2000/svg" xmlns:xlink="http://www.w3.org/1999/xlink">
    <!-- Generator: Sketch 39.1 (31720) - http://www.bohemiancoding.com/sketch -->
    <title>Logo</title>
    <desc>Created with Sketch.</desc>
    <defs></defs>
    <g id="Logo" stroke="none" stroke-width="1" fill="none" fill-rule="evenodd">
        <g transform="translate(0.000000, -3.000000)">
            <g transform="translate(0.000000, 3.000000)">
                <g id="Left-Side" transform="translate(0.066486, 0.054662)">
                    <path d="M11.4912,46.8297872 L11.4912,24.0191489 L31.0968,12.6893617 L31.0968,0.35248227 C30.1896,0.402836879 29.232,0.604255319 28.4256,1.10780142 L2.9736,15.8113475 C1.2096,16.8184397 0.1512,18.6815603 0.1512,20.7460993 L0.1512,50.1028369 C0.1512,52.1170213 1.26,54.0304965 2.9736,55.0375887 L28.4256,69.7411348 C29.2824,70.2446809 30.1896,70.4460993 31.0968,70.4964539 L31.0968,58.1595745 L11.4912,46.8297872 L11.4912,46.8297872 Z" id="Shape" fill="#484746"></path>
                    <polygon id="Shape" fill="#00B0C6" points="16.884 43.6070922 31.0968 51.8148936 31.0968 45.3191489 22.5288 40.3843972 22.5288 30.464539 31.0968 25.4794326 31.0968 19.0340426 16.884 27.1914894"></polygon>
                </g>
                <g id="Right-Side" transform="translate(30.810486, 0.054662)">
                    <path d="M19.9584,46.8297872 L19.9584,24.0191489 L0.3528,12.6893617 L0.3528,0.35248227 C1.26,0.402836879 2.2176,0.604255319 3.024,1.10780142 L28.476,15.8113475 C30.24,16.8184397 31.2984,18.6815603 31.2984,20.7460993 L31.2984,50.1028369 C31.2984,52.1170213 30.24,54.0304965 28.476,55.0375887 L3.024,69.6907801 C2.1672,70.1943262 1.26,70.3957447 0.3528,70.4460993 L0.3528,58.1092199 L19.9584,46.8297872 L19.9584,46.8297872 Z" id="Shape" fill="#1C1C1B"></path>
                    <polygon id="Shape" fill="#008394" points="14.5152 43.6070922 0.3528 51.8148936 0.3528 45.3191489 8.9208 40.3843972 8.9208 30.464539 0.3528 25.4794326 0.3528 19.0340426 14.5152 27.1914894"></polygon>
                </g>
            </g>
            <text id="Pygonal" fill="#484746" font-family="PTMono-Regular, PT Mono" font-size="64" font-weight="normal">
                <tspan x="74" y="57">Pygonal</tspan>
            </text>
        </g>
    </g>
</svg>